<?xml version="1.0" encoding="iso-8859-1"?>
<!-- Uploaded to: SVG Repo, www.svgrepo.com, Generator: SVG Repo Mixer Tools -->
<!DOCTYPE svg PUBLIC "-//W3C//DTD SVG 1.1//EN" "http://www.w3.org/Graphics/SVG/1.1/DTD/svg11.dtd">
<svg fill="#000000" version="1.1" id="Capa_1" xmlns="http://www.w3.org/2000/svg" xmlns:xlink="http://www.w3.org/1999/xlink" 
	 width="800px" height="800px" viewBox="0 0 29.742 29.742"
	 xml:space="preserve">
<g>
	<g>
		<path d="M14.352,4.751h-2.89v9.421h2.89V4.751z M13.957,13.778h-2.1v-1.065h2.1V13.778z M13.701,11.819v0.378H12.25v-0.378H13.701
			z M12.25,11.475v-0.376h1.451v0.376H12.25z M13.957,10.366h-2.1v-5.22h2.1V10.366z"/>
		<rect x="12.242" y="6.179" width="1.465" height="0.405"/>
		<path d="M17.723,4.751h-2.892v1.396v1.082v6.943h2.892V4.751z M17.326,13.778h-2.1v-1.085h2.1V13.778z M17.007,11.483v0.405
			h-1.465v-0.405H17.007z M15.545,11.22v-0.405h1.465v0.405H15.545z M17.326,10.011h-2.1V7.229h2.1V10.011z M15.542,6.885V6.479
			h1.465v0.405H15.542z M17.326,6.146h-2.1v-1h2.1V6.146z"/>
		<path d="M24.412,4.751h-2.891v9.421h2.891V4.751z M24.018,13.778h-2.101V5.146h2.101V13.778z"/>
		<rect x="23.1" y="5.874" width="0.404" height="4.79"/>
		<rect x="22.43" y="5.866" width="0.406" height="4.79"/>
		<path d="M21.143,4.751h-2.89v9.421h2.89V4.751z M20.748,13.778h-2.1V5.146h2.1V13.778z"/>
		<rect x="18.982" y="6.343" width="1.466" height="0.404"/>
		<rect x="18.98" y="7.009" width="1.463" height="0.406"/>
		<rect x="18.98" y="11.456" width="1.463" height="0.406"/>
		<rect x="18.982" y="12.177" width="1.466" height="0.404"/>
		<path d="M2.283,25.828h2.89v-9.422h-2.89V25.828z M2.678,16.801h2.099v8.631H2.678V16.801z"/>
		<rect x="3.013" y="17.998" width="1.465" height="0.404"/>
		<rect x="3.01" y="18.664" width="1.465" height="0.406"/>
		<rect x="3.01" y="23.113" width="1.465" height="0.404"/>
		<rect x="3.013" y="23.832" width="1.465" height="0.404"/>
		<path d="M7.997,5.232L5.254,4.32l-0.44,1.326L4.472,6.672l-2.189,6.589l2.742,0.911L7.997,5.232z M5.504,4.82l1.992,0.663
			L7.18,6.432L5.188,5.771L5.504,4.82z M6.773,6.646L6.646,7.032L5.255,6.57l0.128-0.385L6.773,6.646z M4.848,6.795L6.84,7.458
			l-0.877,2.64L3.97,9.436L4.848,6.795z M4.019,10.3l1.39,0.461l-0.127,0.386l-1.391-0.464L4.019,10.3z M3.806,10.933l1.39,0.461
			l-0.128,0.385l-1.391-0.461L3.806,10.933z M2.783,13.011l0.342-1.029l1.993,0.662l-0.344,1.029L2.783,13.011z"/>
		<path d="M10.887,4.692h-2.89v9.421h2.89V4.692z M10.492,13.718H8.393V5.086h2.099V13.718z"/>
		<rect x="8.728" y="6.282" width="1.465" height="0.404"/>
		<rect x="8.725" y="6.951" width="1.465" height="0.405"/>
		<rect x="8.725" y="11.397" width="1.465" height="0.404"/>
		<rect x="8.728" y="12.116" width="1.465" height="0.406"/>
		<path d="M27.913,4.751h-2.89v9.421h2.89V4.751z M27.518,13.778h-2.099V5.146h2.099V13.778z"/>
		<rect x="25.753" y="6.343" width="1.465" height="0.404"/>
		<rect x="25.75" y="11.456" width="1.465" height="0.406"/>
		<rect x="25.753" y="12.177" width="1.465" height="0.404"/>
		<path d="M0,2.053v25.637h29.742V2.053H0z M28.452,3.343v11.206H1.29V3.343H28.452z M1.29,15.195h14.313V26.4H1.29V15.195z
			 M16.249,26.4V15.195h12.203V26.4H16.249z"/>
		<path d="M26.201,16.308c-0.918-0.247-1.561,0.813-1.719,1.104h-2.017h-0.026H20.32c-0.225-0.377-0.83-1.227-1.661-1.002
			c-0.781,0.209-0.63,1.263-0.47,2.377c0.068,0.48,0.14,0.979,0.144,1.426c0.004,0.4,0.146,0.729,0.42,0.976
			c0.47,0.419,1.218,0.484,1.642,0.484c0.181,0,0.301-0.013,0.318-0.017c0.547,1.035,1.124,1.545,1.124,1.545v0.309
			c0,0,0.185,0.016,0.248,0c-0.011,0.844-0.521,0.924-0.521,0.924v0.385h-0.353v0.159h-0.185l-0.144,0.435h-0.528v0.447h4.09v-0.447
			H24.02l-0.143-0.435h-0.186v-0.159H23.34v-0.385c0,0-0.509-0.08-0.52-0.924c0.061,0.016,0.248,0,0.248,0v-0.307
			c0,0,0.609-0.539,1.17-1.639c0.057,0.004,0.133,0.006,0.227,0.006c0.426,0,1.172-0.065,1.643-0.484
			c0.274-0.247,0.418-0.572,0.422-0.973c0.004-0.451,0.074-0.946,0.144-1.428C26.83,17.572,26.98,16.518,26.201,16.308z
			 M19.027,20.878c-0.187-0.166-0.278-0.386-0.281-0.667c-0.004-0.479-0.076-0.988-0.148-1.48c-0.133-0.931-0.258-1.804,0.17-1.919
			c0.699-0.188,1.258,0.927,1.272,0.956v0.087c0,0,0.123,0,0.37,0c-0.105,0.537-0.268,0.581-0.598,0.81
			c0.117,1.052,0.394,1.912,0.703,2.594C20.193,21.268,19.443,21.248,19.027,20.878z M26.264,18.627
			c-0.074,0.492-0.145,1.004-0.148,1.482c-0.002,0.28-0.096,0.5-0.283,0.668c-0.377,0.338-1.042,0.383-1.398,0.379
			c0.291-0.664,0.547-1.494,0.658-2.494c-0.33-0.229-0.492-0.271-0.599-0.809c0.247,0,0.37,0,0.37,0v-0.268
			c0.146-0.256,0.642-1.037,1.23-0.876C26.521,16.822,26.395,17.699,26.264,18.627z"/>
		<path d="M12.917,19.376c-1.035-0.175-1.889,0.299-2.232,0.53c0.015-0.302,0.031-0.635,0.038-0.83
			c0.011-0.26,0.47-0.396,0.69-0.608c0.132-0.125-0.003-0.457-0.003-0.457s-1.146,0.509-1.115,1
			c0.015,0.239,0.018,0.575,0.017,0.854c-0.321-0.213-1-0.563-1.958-0.519C7.032,19.408,6.166,20.38,6.19,21.82
			c0.025,1.998,1.798,3.685,3.034,3.685c0.304,0,0.553-0.038,0.747-0.086l-0.023,0.144l0.228-0.115l0.106,0.414l0.143-0.355
			l0.235,0.25v-0.25l0.311,0.095l-0.074-0.224c0.199,0.066,0.497,0.134,0.894,0.134c1.236,0,3.016-1.336,3.04-3.334
			C14.855,20.736,14.264,19.603,12.917,19.376z M8.013,23.59c-0.5-0.639-0.349-1.549-0.349-1.549s0.334,0.842,0.678,1.363
			c0.344,0.521,0.933,0.938,0.933,0.938S8.513,24.23,8.013,23.59z"/>
	</g>
</g>
</svg>